<?xml version="1.0" encoding="UTF-8" standalone="no"?>
<!-- Created with Inkscape (http://www.inkscape.org/) -->

<svg
   width="210mm"
   height="297mm"
   viewBox="0 0 210 297"
   version="1.1"
   id="svg5"
   inkscape:version="1.1.2 (0a00cf5339, 2022-02-04)"
   sodipodi:docname="drawing.svg"
   inkscape:export-filename="/media/littlecube/Data/TFCIS/2023Pre/pC/statement/drawing.webp"
   inkscape:export-xdpi="300"
   inkscape:export-ydpi="300"
   xmlns:inkscape="http://www.inkscape.org/namespaces/inkscape"
   xmlns:sodipodi="http://sodipodi.sourceforge.net/DTD/sodipodi-0.dtd"
   xmlns="http://www.w3.org/2000/svg"
   xmlns:svg="http://www.w3.org/2000/svg">
  <sodipodi:namedview
     id="namedview7"
     pagecolor="#ffffff"
     bordercolor="#666666"
     borderopacity="1.0"
     inkscape:pageshadow="2"
     inkscape:pageopacity="0.0"
     inkscape:pagecheckerboard="0"
     inkscape:document-units="mm"
     showgrid="false"
     inkscape:zoom="0.37593996"
     inkscape:cx="464.16986"
     inkscape:cy="275.30992"
     inkscape:window-width="1854"
     inkscape:window-height="1016"
     inkscape:window-x="66"
     inkscape:window-y="27"
     inkscape:window-maximized="1"
     inkscape:current-layer="layer1" />
  <defs
     id="defs2" />
  <g
     inkscape:label="Layer 1"
     inkscape:groupmode="layer"
     id="layer1">
    <g
       id="g8951"
       transform="translate(-25.195419,-76.513237)">
      <path
         id="rect31"
         style="fill:none;fill-rule:evenodd;stroke:#000000;stroke-width:2"
         d="m 26.195419,87.513237 h 20 v 20.000003 h -20 z" />
      <path
         id="rect31-7"
         style="fill:#0080ff;fill-opacity:0.5;fill-rule:evenodd;stroke:#000000;stroke-width:2"
         d="m 46.195419,87.513237 h 20 v 20.000003 h -20 z" />
      <path
         id="rect31-5"
         style="fill:none;fill-rule:evenodd;stroke:#000000;stroke-width:2"
         d="m 66.195419,87.513237 h 20 v 20.000003 h -20 z" />
      <path
         id="rect31-3"
         style="fill:none;fill-rule:evenodd;stroke:#000000;stroke-width:2"
         d="M 86.195419,87.513237 H 106.19542 V 107.51324 H 86.195419 Z" />
      <path
         id="rect31-56"
         style="fill:none;fill-rule:evenodd;stroke:#000000;stroke-width:2"
         d="m 106.19542,87.513237 h 20 v 20.000003 h -20 z" />
      <path
         id="rect31-2"
         style="fill:none;fill-rule:evenodd;stroke:#000000;stroke-width:2"
         d="m 126.19542,87.513237 h 20 v 20.000003 h -20 z" />
      <path
         id="rect31-1"
         style="fill:none;fill-rule:evenodd;stroke:#000000;stroke-width:2"
         d="m 26.195419,107.51324 h 20 v 20 h -20 z" />
      <path
         id="rect31-7-2"
         style="fill:none;fill-rule:evenodd;stroke:#000000;stroke-width:2"
         d="m 46.195419,107.51324 h 20 v 20 h -20 z" />
      <path
         id="rect31-5-7"
         style="fill:none;fill-rule:evenodd;stroke:#000000;stroke-width:2"
         d="m 66.195419,107.51324 h 20 v 20 h -20 z" />
      <path
         id="rect31-3-0"
         style="fill:none;fill-rule:evenodd;stroke:#000000;stroke-width:2"
         d="m 86.195419,107.51324 h 20.000001 v 20 H 86.195419 Z" />
      <path
         id="rect31-56-9"
         style="fill:none;fill-rule:evenodd;stroke:#000000;stroke-width:2"
         d="m 106.19542,107.51324 h 20 v 20 h -20 z" />
      <path
         id="rect31-2-3"
         style="fill:none;fill-rule:evenodd;stroke:#000000;stroke-width:2"
         d="m 126.19542,107.51324 h 20 v 20 h -20 z" />
      <path
         id="rect31-0"
         style="fill:none;fill-rule:evenodd;stroke:#000000;stroke-width:2"
         d="m 26.195419,127.51324 h 20 v 20 h -20 z" />
      <path
         id="rect31-7-6"
         style="fill:#0080ff;fill-opacity:0.5;fill-rule:evenodd;stroke:#000000;stroke-width:2"
         d="m 46.195419,127.51324 h 20 v 20 h -20 z" />
      <path
         id="rect31-5-2"
         style="fill:none;fill-rule:evenodd;stroke:#000000;stroke-width:2"
         d="m 66.195419,127.51324 h 20 v 20 h -20 z" />
      <path
         id="rect31-3-6"
         style="fill:none;fill-rule:evenodd;stroke:#000000;stroke-width:2"
         d="m 86.195419,127.51324 h 20.000001 v 20 H 86.195419 Z" />
      <path
         id="rect31-56-1"
         style="fill:none;fill-rule:evenodd;stroke:#000000;stroke-width:2"
         d="m 106.19542,127.51324 h 20 v 20 h -20 z" />
      <path
         id="rect31-2-8"
         style="fill:none;fill-rule:evenodd;stroke:#000000;stroke-width:2"
         d="m 126.19542,127.51324 h 20 v 20 h -20 z" />
      <path
         id="rect31-9"
         style="fill:none;fill-rule:evenodd;stroke:#000000;stroke-width:2"
         d="m 26.195419,147.51324 h 20 v 20 h -20 z" />
      <path
         id="rect31-7-20"
         style="fill:none;fill-rule:evenodd;stroke:#000000;stroke-width:2"
         d="m 46.195419,147.51324 h 20 v 20 h -20 z" />
      <path
         id="rect31-5-23"
         style="fill:none;fill-rule:evenodd;stroke:#000000;stroke-width:2"
         d="m 66.195419,147.51324 h 20 v 20 h -20 z" />
      <path
         id="rect31-3-7"
         style="fill:none;fill-rule:evenodd;stroke:#000000;stroke-width:2"
         d="m 86.195419,147.51324 h 20.000001 v 20 H 86.195419 Z" />
      <path
         id="rect31-56-5"
         style="fill:none;fill-rule:evenodd;stroke:#000000;stroke-width:2"
         d="m 106.19542,147.51324 h 20 v 20 h -20 z" />
      <path
         id="rect31-2-9"
         style="fill:#0080ff;fill-opacity:0.5;fill-rule:evenodd;stroke:#000000;stroke-width:2"
         d="m 126.19542,147.51324 h 20 v 20 h -20 z" />
      <path
         id="rect31-28"
         style="fill:none;fill-rule:evenodd;stroke:#000000;stroke-width:2"
         d="m 26.195419,167.51324 h 20 v 20 h -20 z" />
      <path
         id="rect31-7-9"
         style="fill:#0080ff;fill-opacity:0.5;fill-rule:evenodd;stroke:#000000;stroke-width:2"
         d="m 46.195419,167.51324 h 20 v 20 h -20 z" />
      <path
         id="rect31-5-73"
         style="fill:#0080ff;fill-opacity:0.5;fill-rule:evenodd;stroke:#000000;stroke-width:2"
         d="m 66.195419,167.51324 h 20 v 20 h -20 z" />
      <path
         id="rect31-3-61"
         style="fill:#0080ff;fill-opacity:0.5;fill-rule:evenodd;stroke:#000000;stroke-width:2"
         d="m 86.195419,167.51324 h 20.000001 v 20 H 86.195419 Z" />
      <path
         id="rect31-56-2"
         style="fill:none;fill-rule:evenodd;stroke:#000000;stroke-width:2"
         d="m 106.19542,167.51324 h 20 v 20 h -20 z" />
      <path
         id="rect31-2-93"
         style="fill:#0080ff;fill-opacity:0.5;fill-rule:evenodd;stroke:#000000;stroke-width:2"
         d="m 126.19542,167.51324 h 20 v 20 h -20 z" />
    </g>
    <path
       id="rect31-4"
       style="fill:none;fill-rule:evenodd;stroke:#000000;stroke-width:2"
       d="m 151,11 h 20 v 20 h -20 z" />
    <path
       id="rect31-7-3"
       style="fill:#0080ff;fill-opacity:0.5;fill-rule:evenodd;stroke:#000000;stroke-width:2"
       d="m 171,11 h 20 v 20 h -20 z" />
    <path
       id="rect31-5-0"
       style="fill:none;fill-rule:evenodd;stroke:#000000;stroke-width:2"
       d="m 191,11 h 20 v 20 h -20 z" />
    <path
       id="rect31-3-78"
       style="fill:none;fill-rule:evenodd;stroke:#000000;stroke-width:2"
       d="m 211,11 h 20 v 20 h -20 z" />
    <path
       id="rect31-56-6"
       style="fill:none;fill-rule:evenodd;stroke:#000000;stroke-width:2"
       d="m 231,11 h 20 v 20 h -20 z" />
    <path
       id="rect31-2-88"
       style="fill:none;fill-rule:evenodd;stroke:#000000;stroke-width:2"
       d="m 251,11 h 20 v 20 h -20 z" />
    <path
       id="rect31-1-4"
       style="fill:none;fill-rule:evenodd;stroke:#000000;stroke-width:2"
       d="m 151,31 h 20 v 20 h -20 z" />
    <path
       id="rect31-7-2-3"
       style="fill:none;fill-rule:evenodd;stroke:#000000;stroke-width:2"
       d="m 171,31 h 20 v 20 h -20 z" />
    <path
       id="rect31-5-7-1"
       style="fill:#ff8000;fill-rule:evenodd;stroke:#000000;stroke-width:2"
       d="m 191,31 h 20 v 20 h -20 z" />
    <path
       id="rect31-3-0-4"
       style="fill:none;fill-rule:evenodd;stroke:#000000;stroke-width:2"
       d="m 211,31 h 20 v 20 h -20 z" />
    <path
       id="rect31-56-9-9"
       style="fill:#ff8000;fill-rule:evenodd;stroke:#000000;stroke-width:2"
       d="m 231,31 h 20 v 20 h -20 z" />
    <path
       id="rect31-2-3-2"
       style="fill:none;fill-rule:evenodd;stroke:#000000;stroke-width:2"
       d="m 251,31 h 20 v 20 h -20 z" />
    <path
       id="rect31-0-0"
       style="fill:none;fill-rule:evenodd;stroke:#000000;stroke-width:2"
       d="m 151,51 h 20 v 20 h -20 z" />
    <path
       id="rect31-7-6-6"
       style="fill:#0080ff;fill-opacity:0.5;fill-rule:evenodd;stroke:#000000;stroke-width:2"
       d="m 171,51 h 20 v 20 h -20 z" />
    <path
       id="rect31-5-2-8"
       style="fill:none;fill-rule:evenodd;stroke:#000000;stroke-width:2"
       d="m 191,51 h 20 v 20 h -20 z" />
    <path
       id="rect31-3-6-9"
       style="fill:#ff8000;fill-rule:evenodd;stroke:#000000;stroke-width:2"
       d="m 211,51 h 20 v 20 h -20 z" />
    <path
       id="rect31-56-1-2"
       style="fill:none;fill-rule:evenodd;stroke:#000000;stroke-width:2"
       d="m 231,51 h 20 v 20 h -20 z" />
    <path
       id="rect31-2-8-6"
       style="fill:none;fill-rule:evenodd;stroke:#000000;stroke-width:2"
       d="m 251,51 h 20 v 20 h -20 z" />
    <path
       id="rect31-9-6"
       style="fill:none;fill-rule:evenodd;stroke:#000000;stroke-width:2"
       d="m 151,71.000008 h 20 v 20 h -20 z" />
    <path
       id="rect31-7-20-4"
       style="fill:none;fill-rule:evenodd;stroke:#000000;stroke-width:2"
       d="m 171,71.000008 h 20 v 20 h -20 z" />
    <path
       id="rect31-5-23-9"
       style="fill:#ff8000;fill-rule:evenodd;stroke:#000000;stroke-width:2"
       d="m 191,71.000008 h 20 v 20 h -20 z" />
    <path
       id="rect31-3-7-5"
       style="fill:none;fill-rule:evenodd;stroke:#000000;stroke-width:2"
       d="m 211,71.000008 h 20 v 20 h -20 z" />
    <path
       id="rect31-56-5-0"
       style="fill:#ff8000;fill-rule:evenodd;stroke:#000000;stroke-width:2"
       d="m 231,71.000008 h 20 v 20 h -20 z" />
    <path
       id="rect31-2-9-4"
       style="fill:#0080ff;fill-opacity:0.5;fill-rule:evenodd;stroke:#000000;stroke-width:2"
       d="m 251,71.000008 h 20 v 20 h -20 z" />
    <path
       id="rect31-28-8"
       style="fill:none;fill-rule:evenodd;stroke:#000000;stroke-width:2"
       d="m 151,91.000008 h 20 v 20.000002 h -20 z" />
    <path
       id="rect31-7-9-7"
       style="fill:#0080ff;fill-opacity:0.5;fill-rule:evenodd;stroke:#000000;stroke-width:2"
       d="m 171,91.000008 h 20 v 20.000002 h -20 z" />
    <path
       id="rect31-5-73-1"
       style="fill:#0080ff;fill-opacity:0.5;fill-rule:evenodd;stroke:#000000;stroke-width:2"
       d="m 191,91.000008 h 20 v 20.000002 h -20 z" />
    <path
       id="rect31-3-61-7"
       style="fill:#0080ff;fill-opacity:0.5;fill-rule:evenodd;stroke:#000000;stroke-width:2"
       d="m 211,91.000008 h 20 v 20.000002 h -20 z" />
    <path
       id="rect31-56-2-2"
       style="fill:none;fill-rule:evenodd;stroke:#000000;stroke-width:2"
       d="m 231,91.000008 h 20 v 20.000002 h -20 z" />
    <path
       id="rect31-2-93-7"
       style="fill:#0080ff;fill-opacity:0.5;fill-rule:evenodd;stroke:#000000;stroke-width:2"
       d="m 251,91.000008 h 20 v 20.000002 h -20 z" />
    <path
       id="rect31-4-2"
       style="fill:#ff8000;fill-rule:evenodd;stroke:#000000;stroke-width:2"
       d="m 301,11 h 20 v 20 h -20 z" />
    <path
       id="rect31-7-3-2"
       style="fill:#0080ff;fill-opacity:0.5;fill-rule:evenodd;stroke:#000000;stroke-width:2"
       d="m 321,11 h 20 v 20 h -20 z" />
    <path
       id="rect31-5-0-6"
       style="fill:none;fill-rule:evenodd;stroke:#000000;stroke-width:2"
       d="m 341,11 h 20 v 20 h -20 z" />
    <path
       id="rect31-3-78-1"
       style="fill:none;fill-rule:evenodd;stroke:#000000;stroke-width:2"
       d="m 361,11 h 20 v 20 h -20 z" />
    <path
       id="rect31-56-6-0"
       style="fill:#ff8000;fill-rule:evenodd;stroke:#000000;stroke-width:2"
       d="m 381,11 h 20 v 20 h -20 z" />
    <path
       id="rect31-2-88-6"
       style="fill:none;fill-rule:evenodd;stroke:#000000;stroke-width:2"
       d="m 401,11 h 20 v 20 h -20 z" />
    <path
       id="rect31-1-4-1"
       style="fill:none;fill-rule:evenodd;stroke:#000000;stroke-width:2"
       d="m 301,31 h 20 v 20 h -20 z" />
    <path
       id="rect31-7-2-3-5"
       style="fill:#ff8000;fill-rule:evenodd;stroke:#000000;stroke-width:2"
       d="m 321,31 h 20 v 20 h -20 z" />
    <path
       id="rect31-5-7-1-9"
       style="fill:none;fill-rule:evenodd;stroke:#000000;stroke-width:2"
       d="m 341,31 h 20 v 20 h -20 z" />
    <path
       id="rect31-3-0-4-4"
       style="fill:#ff8000;fill-rule:evenodd;stroke:#000000;stroke-width:2"
       d="m 361,31 h 20 v 20 h -20 z" />
    <path
       id="rect31-56-9-9-9"
       style="fill:none;fill-rule:evenodd;stroke:#000000;stroke-width:2"
       d="m 381,31 h 20 v 20 h -20 z" />
    <path
       id="rect31-2-3-2-0"
       style="fill:none;fill-rule:evenodd;stroke:#000000;stroke-width:2"
       d="m 401,31 h 20 v 20 h -20 z" />
    <path
       id="rect31-0-0-9"
       style="fill:none;fill-rule:evenodd;stroke:#000000;stroke-width:2"
       d="m 301,51 h 20 v 20 h -20 z" />
    <path
       id="rect31-7-6-6-1"
       style="fill:#0080ff;fill-opacity:0.5;fill-rule:evenodd;stroke:#000000;stroke-width:2"
       d="m 321,51 h 20 v 20 h -20 z" />
    <path
       id="rect31-5-2-8-7"
       style="fill:#ff8000;fill-rule:evenodd;stroke:#000000;stroke-width:2"
       d="m 341,51 h 20 v 20 h -20 z" />
    <path
       id="rect31-3-6-9-7"
       style="fill:none;fill-rule:evenodd;stroke:#000000;stroke-width:2"
       d="m 361,51 h 20 v 20 h -20 z" />
    <path
       id="rect31-56-1-2-1"
       style="fill:none;fill-rule:evenodd;stroke:#000000;stroke-width:2"
       d="m 381,51 h 20 v 20 h -20 z" />
    <path
       id="rect31-2-8-6-1"
       style="fill:none;fill-rule:evenodd;stroke:#000000;stroke-width:2"
       d="m 401,51 h 20 v 20 h -20 z" />
    <path
       id="rect31-9-6-5"
       style="fill:none;fill-rule:evenodd;stroke:#000000;stroke-width:2"
       d="m 301,71.000008 h 20 v 20 h -20 z" />
    <path
       id="rect31-7-20-4-9"
       style="fill:#ff8000;fill-rule:evenodd;stroke:#000000;stroke-width:2"
       d="m 321,71.000008 h 20 v 20 h -20 z" />
    <path
       id="rect31-5-23-9-7"
       style="fill:none;fill-rule:evenodd;stroke:#000000;stroke-width:2"
       d="m 341,71.000008 h 20 v 20 h -20 z" />
    <path
       id="rect31-3-7-5-7"
       style="fill:#ff8000;fill-rule:evenodd;stroke:#000000;stroke-width:2"
       d="m 361,71.000008 h 20 v 20 h -20 z" />
    <path
       id="rect31-56-5-0-6"
       style="fill:none;fill-rule:evenodd;stroke:#000000;stroke-width:2"
       d="m 381,71.000008 h 20 v 20 h -20 z" />
    <path
       id="rect31-2-9-4-7"
       style="fill:#0080ff;fill-opacity:0.5;fill-rule:evenodd;stroke:#000000;stroke-width:2"
       d="m 401,71.000008 h 20 v 20 h -20 z" />
    <path
       id="rect31-28-8-3"
       style="fill:#ff8000;fill-rule:evenodd;stroke:#000000;stroke-width:2"
       d="m 301,91.000008 h 20 v 20.000002 h -20 z" />
    <path
       id="rect31-7-9-7-6"
       style="fill:#0080ff;fill-opacity:0.5;fill-rule:evenodd;stroke:#000000;stroke-width:2"
       d="m 321,91.000008 h 20 v 20.000002 h -20 z" />
    <path
       id="rect31-5-73-1-5"
       style="fill:#0080ff;fill-opacity:0.5;fill-rule:evenodd;stroke:#000000;stroke-width:2"
       d="m 341,91.000008 h 20 v 20.000002 h -20 z" />
    <path
       id="rect31-3-61-7-6"
       style="fill:#0080ff;fill-opacity:0.5;fill-rule:evenodd;stroke:#000000;stroke-width:2"
       d="m 361,91.000008 h 20 v 20.000002 h -20 z" />
    <path
       id="rect31-56-2-2-3"
       style="fill:#ff8000;fill-rule:evenodd;stroke:#000000;stroke-width:2"
       d="m 381,91.000008 h 20 v 20.000002 h -20 z" />
    <path
       id="rect31-2-93-7-9"
       style="fill:#0080ff;fill-opacity:0.5;fill-rule:evenodd;stroke:#000000;stroke-width:2"
       d="m 401,91.000008 h 20 v 20.000002 h -20 z" />
  </g>
</svg>
